<svg width="200" height="200" viewBox="0 0 200 200" fill="none" xmlns="http://www.w3.org/2000/svg">
<rect width="200" height="200" fill="white"/>
<rect x="16" y="168" width="62" height="12" fill="black"/>
<rect x="39" y="33" width="16" height="135" fill="black"/>
<rect x="40" y="33" width="85" height="13" fill="black"/>
<rect x="113" y="33" width="12" height="25" fill="black"/>
<circle cx="119" cy="76" r="14" fill="black"/>
<rect x="115" y="94" width="8" height="34" fill="black"/>
<rect x="123" y="94" width="21" height="7" fill="black"/>
<rect x="94" y="94" width="21" height="7" fill="black"/>
<rect x="115.35" y="125" width="7" height="40" transform="rotate(21.0238 115.35 125)" fill="black"/>
<rect x="117" y="129.239" width="7" height="40" transform="rotate(-27.5626 117 129.239)" fill="black"/>
<path d="M131 82.5C131 85.3995 129.881 86 128.5 86C127.119 86 126 85.3995 126 82.5C128.045 76.75 127.119 76 128.5 76C129.881 76 128.955 76.75 131 82.5Z" fill="#3F31FF"/>
</svg>
